<svg width="147" height="150" viewBox="0 0 147 150" fill="none" xmlns="http://www.w3.org/2000/svg">
<path d="M121.63 130.118C121.612 130.134 82.1493 107.232 65.2485 97.3119C60.6486 94.6117 58.0137 89.504 58.4727 84.1897C61.1325 53.3889 63.7846 24.2294 65.5436 0H2.0154C3.50654 10.2105 3.99825 15.8224 5.41041 26.6927C6.94549 38.7287 8.48355 62.04 10.866 77.3504C12.0419 84.9071 12.796 93.8462 8.65636 100.277C1.92336 110.738 -5.53176 131.885 6.01138 144.203C12.9487 151.606 34.4553 145.937 47.3726 144.524C62.7626 142.84 79.4503 152.097 122.014 147.288C134.586 148.863 144.378 148.394 145.726 145.185C150.776 133.168 128.412 134.364 121.63 130.118Z" fill="#F7C18B"/>
<path d="M80.3861 136.084C87.8 128.67 87.8 116.65 80.3861 109.236C72.9722 101.822 60.952 101.822 53.5381 109.236C46.1243 116.65 46.1243 128.67 53.5381 136.084C60.952 143.498 72.9722 143.498 80.3861 136.084Z" fill="#FF9D6C"/>
<path d="M115.919 132.071C117.051 135.001 115.64 139.31 113.537 141.385C118.402 140.478 124.68 139.885 129.489 142.17C131.985 141.183 131.656 138.693 130.98 136.484C124.247 136.392 119.987 134.51 115.919 132.071Z" fill="#FFF3E8"/>
<path d="M130.894 142.736C132.833 141.649 133.161 139.023 132.653 137.256C136.435 138.595 137.323 140.841 143.911 140.578C144.968 141.45 144.738 142.451 143.87 143.513C138.957 142.299 135.316 144.72 130.894 142.736Z" fill="#FFF3E8"/>
<path d="M42.3516 79.9592C39.1425 54.3063 42.8748 20.0884 43.4496 0.000488281H21.902C22.4163 25.876 28.2122 52.1192 26.1587 81.1807L20.4994 94.7863C20.8474 99.0922 22.7946 101.671 25.7282 103.187L34.95 95.5494L46.8215 100.221C49.4706 97.4467 50.2765 93.6853 49.4991 89.0741L42.3516 79.9592Z" fill="#FFF3E8"/>
<path d="M10.4782 119.927L8.56128 128.197C9.87724 133.082 12.0418 137.437 15.6019 140.92L21.0124 140.993L35.5331 134.338L47.4651 132.336L56.4696 127.86L56.5593 121.278L43.4674 121.28L34.6886 114.667L27.1011 117.809L20.9916 116.102C17.2813 116.615 13.7687 117.858 10.4782 119.927Z" fill="#FFF3E8"/>
<path d="M21.7381 114.308L26.7627 116.181L34.7516 112.322L44.0352 119.303L56.5837 119.474C60.2839 118.585 62.0536 114.564 62.9331 109.1C58.294 105.943 53.1916 103.691 47.6143 102.363L35.3045 98.2605L23.2596 108.557C21.832 110.839 21.2779 112.775 21.7381 114.308Z" fill="#FFF3E8"/>
<path d="M58.3408 128.395L58.4352 121.483C62.069 119.549 63.844 115.064 64.4913 109.481C66.8031 110.027 68.5727 110.935 69.5128 112.396L70.2533 118.998L68.6529 130.52C65.0875 131.133 61.6539 130.384 58.3408 128.395Z" fill="#FFF3E8"/>
<path d="M71.0817 113.364L71.8929 118.962L70.0959 130.482C72.3252 131.634 74.9548 131.824 77.7773 131.55C78.1953 127.976 79.3616 124.585 81.5179 121.8L80.6823 116.918C77.0172 113.986 73.1548 112.374 71.0817 113.364Z" fill="#FFF3E8"/>
<path d="M82.7691 122.642C81.0322 125.294 79.9751 128.275 79.2203 131.569C90.0538 132.95 101.95 135.783 112.085 141.365C115.039 138.128 115.54 135.372 114.577 131.269C103.399 132.035 92.4381 128.108 82.7691 122.642Z" fill="#FFF3E8"/>
<path opacity="0.1" d="M100.477 141.365C73.0307 134.339 59.2613 131.176 26.6373 138.415C19.855 140.221 11.2972 127.113 14.4047 117.89C26.4657 82.0918 16.0117 64.1808 10.673 0H2.0154C3.50654 10.2105 3.99884 15.8224 5.4104 26.6921C6.94549 38.7281 8.48354 62.0394 10.866 77.3499C12.0419 84.9066 12.796 93.8457 8.65635 100.276C1.92335 110.737 -5.53175 131.884 6.01137 144.202C12.9486 151.606 34.4553 145.936 47.3726 144.523C62.7626 142.84 79.4502 152.096 122.014 147.287C134.586 148.862 144.377 148.393 145.725 145.184C147.354 141.31 146.125 138.814 143.495 137.061C132.421 143.109 112.549 144.986 100.477 141.365Z" fill="black"/>
</svg>
