<svg width="57" height="144" viewBox="0 0 57 144" fill="none" xmlns="http://www.w3.org/2000/svg">
<path d="M7.64015 85.322L3.67456 95.1831V101.528L7.64015 107.429L10.0193 143.612H17.4213L18.7029 96.7203L7.64015 85.322Z" fill="#FFF3E8"/>
<path d="M54.0301 62.6959C53.3713 65.465 51.5753 67.4404 49.2702 69.0422L46.3217 68.8924L31.1743 68.1436L18.3473 75.9118L10.4743 75.5075L4.2476 75.1932C1.92773 70.8376 0.236515 66.0778 0.505861 59.5521C1.17949 56.304 2.631 53.3555 4.51695 50.5414C6.59764 47.4579 7.60041 43.7612 7.52527 40.0343L6.85217 0.19165H28.1062L37.2814 36.3534C37.8201 38.4637 39.3616 40.1851 41.4126 40.9333C45.918 42.5647 49.9888 44.7052 53.5364 47.4442C54.9879 52.2787 55.0329 57.3973 54.0301 62.6959Z" fill="#FFF3E8"/>
<path d="M56.4098 77.5887C52.1886 85.3717 49.0904 93.2897 48.4771 101.522L47.6838 143.611H23.7057L21.1165 114.2C20.8318 110.937 19.9338 107.763 18.4823 104.86C17.3445 102.57 15.8629 100.43 14.0669 98.5586L6.05899 90.1316C5.96903 90.0416 5.89442 89.9522 5.81981 89.8469C4.50271 88.3054 3.76928 86.075 3.67932 83.1265L5.4605 78.382L11.4925 78.846L14.1717 79.0556L19.7099 79.2651L33.2106 71.2424L46.5768 71.7663L54.0307 72.051L56.4098 77.5887Z" fill="#FFF3E8"/>
<path d="M18.3472 75.9124L10.4743 75.5081C10.2351 74.3407 10.115 73.1284 10.115 71.9008C10.115 61.8423 18.2721 53.6704 28.3453 53.6704C37.3856 53.6704 44.8845 60.2559 46.3211 68.8924L31.1737 68.1437L18.3472 75.9124Z" fill="#FF9D6C"/>
<path d="M46.5762 71.7663V71.9012C46.5762 81.9745 38.4191 90.1316 28.3459 90.1316C20.7275 90.1316 14.2166 85.4765 11.4924 78.846L14.1716 79.0556L19.7099 79.2651L33.2105 71.2424L46.5762 71.7663Z" fill="#FF9D6C"/>
<path opacity="0.1" d="M9.20007 131.155L10.0192 143.612H17.4212L17.7435 131.819C14.9606 131.983 12.0734 131.719 9.20007 131.155Z" fill="black"/>
<path opacity="0.1" d="M31.8527 125.306C29.3048 128.279 26.1139 130.087 22.5986 131.038L23.7057 143.611H47.6838L48.477 101.522C48.6829 98.7628 49.1883 96.0413 49.901 93.3452C43.152 104.523 41.5899 116.96 31.8527 125.306Z" fill="black"/>
</svg>
