<svg width="73" height="162" viewBox="0 0 73 162" fill="none" xmlns="http://www.w3.org/2000/svg">
<path d="M43.332 160.724C34.8331 161.028 29.3472 161.204 21.5271 160.945C8.67314 160.52 6.86921 159.496 5.659 158.226C3.19573 155.644 4.50594 153.184 4.28211 140.591C3.97307 123.237 2.70307 121.226 3.56826 113.336C3.74553 111.72 4.14558 108.642 3.83178 104.467C3.57143 101.003 3.05179 99.8703 2.4967 95.9185C1.95483 92.0603 2.14691 90.9814 1.831 85.0436C1.36427 76.2816 0.803886 75.9678 0.721336 71.4503C0.613915 65.5866 1.47752 61.72 2.4967 56.2479C3.47354 51.0038 5.96433 37.6312 6.95281 23.6189C7.34387 18.0753 7.64285 10.4003 7.22533 1.15253L14.1982 1.0377L25.8536 0.772589L32.2343 0.634476L40.3195 0.450326L47.7712 0.28893C49.3682 0.101604 51.7548 -0.086779 54.6509 0.042867C57.2756 0.160342 59.043 0.239717 60.0881 0.70856C64.8855 2.86121 62.8302 16.9709 62.363 23.4014C61.002 42.1291 69.5777 44.3236 72.0727 64.4039C75.6012 92.8038 59.2081 95.6354 61.8259 127.152C63.1065 142.572 68.0256 153.85 61.9195 158.893C60.54 160.032 59.4542 160.146 43.332 160.724Z" fill="#F7C18B"/>
</svg>
