<svg width="165" height="21" viewBox="0 0 165 21" fill="none" xmlns="http://www.w3.org/2000/svg">
<path d="M15.488 17L15.44 9.344L11.792 15.488H9.296L5.648 9.608V17H0.488V0.199999H5.144L10.616 9.152L15.944 0.199999H20.6L20.648 17H15.488ZM37.5654 12.728V17H23.5974V0.199999H37.2534V4.472H29.1654V6.44H36.2694V10.52H29.1654V12.728H37.5654ZM58.703 12.608V20.288H53.519V17H43.967V20.288H38.783V12.608H39.263C40.239 12.608 40.927 11.992 41.327 10.76C41.727 9.528 41.983 7.712 42.095 5.312L42.287 0.199999H56.495V12.608H58.703ZM47.015 5.792C46.951 7.408 46.823 8.784 46.631 9.92C46.439 11.04 46.143 11.936 45.743 12.608H50.927V4.592H47.063L47.015 5.792ZM72.3412 8.36L77.3092 17H70.9252L67.7092 10.928H66.1252V17H60.4612V0.199999H66.1252V6.464H67.8532L71.4292 0.199999H77.3332L72.3412 8.36ZM95.3488 0.199999V17H89.7808V4.592H85.9408L85.8928 6.536C85.8288 8.936 85.6368 10.904 85.3168 12.44C84.9968 13.976 84.4368 15.176 83.6367 16.04C82.8368 16.888 81.6928 17.312 80.2048 17.312C79.4528 17.312 78.6528 17.208 77.8048 17L78.0928 12.464C78.3008 12.512 78.5088 12.536 78.7168 12.536C79.3088 12.536 79.7568 12.296 80.0608 11.816C80.3808 11.336 80.5968 10.696 80.7088 9.896C80.8208 9.096 80.9008 8.048 80.9488 6.752L81.1648 0.199999H95.3488ZM112.284 12.728V17H98.3161V0.199999H111.972V4.472H103.884V6.44H110.988V10.52H103.884V12.728H112.284ZM127.494 8.192C128.438 8.528 129.158 9.032 129.654 9.704C130.15 10.36 130.398 11.168 130.398 12.128C130.398 13.632 129.798 14.824 128.598 15.704C127.414 16.568 125.734 17 123.558 17H114.582V0.199999H123.102C125.182 0.199999 126.79 0.583999 127.926 1.352C129.078 2.12 129.654 3.2 129.654 4.592C129.654 5.392 129.462 6.096 129.078 6.704C128.71 7.312 128.182 7.808 127.494 8.192ZM120.15 6.656H122.55C123.478 6.656 123.942 6.248 123.942 5.432C123.942 4.584 123.478 4.16 122.55 4.16H120.15V6.656ZM123.294 13.04C124.222 13.04 124.686 12.592 124.686 11.696C124.686 10.832 124.222 10.4 123.294 10.4H120.15V13.04H123.294ZM146.386 12.728V17H132.418V0.199999H146.074V4.472H137.986V6.44H145.09V10.52H137.986V12.728H146.386ZM156.771 0.199999C158.323 0.199999 159.675 0.455999 160.827 0.967999C161.979 1.48 162.867 2.216 163.491 3.176C164.115 4.136 164.427 5.256 164.427 6.536C164.427 7.816 164.115 8.936 163.491 9.896C162.867 10.856 161.979 11.592 160.827 12.104C159.675 12.616 158.323 12.872 156.771 12.872H154.347V17H148.683V0.199999H156.771ZM156.411 8.504C157.179 8.504 157.755 8.336 158.139 8C158.523 7.648 158.715 7.16 158.715 6.536C158.715 5.912 158.523 5.432 158.139 5.096C157.755 4.744 157.179 4.568 156.411 4.568H154.347V8.504H156.411Z" fill="#60CED9"/>
</svg>
