<svg width="137" height="17" viewBox="0 0 137 17" fill="none" xmlns="http://www.w3.org/2000/svg">
<path d="M12.74 14L12.7 7.62L9.66 12.74H7.58L4.54 7.84V14H0.24V-9.53674e-07H4.12L8.68 7.46L13.12 -9.53674e-07H17L17.04 14H12.74ZM31.1378 10.44V14H19.4978V-9.53674e-07H30.8778V3.56H24.1378V5.2H30.0578V8.6H24.1378V10.44H31.1378ZM48.7525 10.34V16.74H44.4325V14H36.4725V16.74H32.1525V10.34H32.5525C33.3658 10.34 33.9392 9.82667 34.2725 8.8C34.6058 7.77333 34.8192 6.26 34.9125 4.26L35.0725 -9.53674e-07H46.9125V10.34H48.7525ZM39.0125 4.66C38.9592 6.00667 38.8525 7.15333 38.6925 8.1C38.5325 9.03333 38.2858 9.78 37.9525 10.34H42.2725V3.66H39.0525L39.0125 4.66ZM60.1177 6.8L64.2577 14H58.9377L56.2577 8.94H54.9377V14H50.2177V-9.53674e-07H54.9377V5.22H56.3777L59.3577 -9.53674e-07H64.2777L60.1177 6.8ZM79.2906 -9.53674e-07V14H74.6506V3.66H71.4506L71.4106 5.28C71.3573 7.28 71.1973 8.92 70.9306 10.2C70.664 11.48 70.1973 12.48 69.5306 13.2C68.864 13.9067 67.9106 14.26 66.6706 14.26C66.044 14.26 65.3773 14.1733 64.6706 14L64.9106 10.22C65.084 10.26 65.2573 10.28 65.4306 10.28C65.924 10.28 66.2973 10.08 66.5506 9.68C66.8173 9.28 66.9973 8.74667 67.0906 8.08C67.184 7.41333 67.2506 6.54 67.2906 5.46L67.4706 -9.53674e-07H79.2906ZM93.4034 10.44V14H81.7634V-9.53674e-07H93.1434V3.56H86.4034V5.2H92.3234V8.6H86.4034V10.44H93.4034ZM106.078 6.66C106.865 6.94 107.465 7.36 107.878 7.92C108.291 8.46667 108.498 9.14 108.498 9.94C108.498 11.1933 107.998 12.1867 106.998 12.92C106.011 13.64 104.611 14 102.798 14H95.3181V-9.53674e-07H102.418C104.151 -9.53674e-07 105.491 0.319999 106.438 0.96C107.398 1.6 107.878 2.5 107.878 3.66C107.878 4.32667 107.718 4.91333 107.398 5.42C107.091 5.92667 106.651 6.34 106.078 6.66ZM99.9581 5.38H101.958C102.731 5.38 103.118 5.04 103.118 4.36C103.118 3.65333 102.731 3.3 101.958 3.3H99.9581V5.38ZM102.578 10.7C103.351 10.7 103.738 10.3267 103.738 9.58C103.738 8.86 103.351 8.5 102.578 8.5H99.9581V10.7H102.578ZM121.821 10.44V14H110.181V-9.53674e-07H121.561V3.56H114.821V5.2H120.741V8.6H114.821V10.44H121.821ZM130.476 -9.53674e-07C131.769 -9.53674e-07 132.896 0.213332 133.856 0.639999C134.816 1.06667 135.556 1.68 136.076 2.48C136.596 3.28 136.856 4.21333 136.856 5.28C136.856 6.34667 136.596 7.28 136.076 8.08C135.556 8.88 134.816 9.49333 133.856 9.92C132.896 10.3467 131.769 10.56 130.476 10.56H128.456V14H123.736V-9.53674e-07H130.476ZM130.176 6.92C130.816 6.92 131.296 6.78 131.616 6.5C131.936 6.20667 132.096 5.8 132.096 5.28C132.096 4.76 131.936 4.36 131.616 4.08C131.296 3.78667 130.816 3.64 130.176 3.64H128.456V6.92H130.176Z" fill="white"/>
</svg>
