<svg width="120" height="158" viewBox="0 0 120 158" fill="none" xmlns="http://www.w3.org/2000/svg">
<path d="M4.37589 81.7313L9.33577 83.067C9.44412 86.5445 9.5089 91.8861 7.76331 94.6097L10.4198 98.1823L9.24806 102.178L10.4198 106.237L10.519 111.089C10.085 119.333 16.7217 121.745 23.2466 121.773L36.074 121.281L35.7518 129.365L38.6606 135.711L38.5407 155.362C38.5407 155.362 38.1481 155.982 37.4819 157.084H119.029C113.288 146.549 106.384 135.051 98.0869 122.343L93.3919 94.4406C102.143 82.1791 106.786 63.9125 107.22 47.2162C104.679 -0.121703 69.0608 -0.0666685 49.8604 0.00556286C24.259 2.31983 6.42473 17.9178 5.27419 46.9835C6.42015 50.3611 7.68706 55.0344 7.68706 55.0344L0.364756 74.319C-0.84082 77.4955 1.05611 81.0027 4.37589 81.7313Z" fill="#F7C18B"/>
<path d="M84.5005 130.141C91.1085 123.533 91.1085 112.819 84.5005 106.211C77.8924 99.6034 67.1787 99.6034 60.5707 106.211C53.9627 112.819 53.9627 123.533 60.5707 130.141C67.1787 136.749 77.8924 136.749 84.5005 130.141Z" fill="#FF9D6C"/>
<path d="M67.3961 106.491L73.0278 106.282C74.0018 106.129 74.6329 105.346 74.4833 104.474L74.3389 103.101L74.8353 103.089C74.8823 103.464 74.8726 103.858 74.9276 104.233C74.9694 104.519 75.0503 104.795 75.1649 105.045C75.3123 105.366 75.5811 105.67 75.8683 105.571C76.1722 105.467 76.2914 104.993 76.5436 104.751C76.8692 104.438 77.3244 104.575 77.7051 104.732C79.1571 105.334 80.6012 106.041 82.1301 106.225C82.3869 106.256 82.728 106.198 82.7853 105.877C82.8289 105.631 82.6627 105.418 82.5004 105.28C81.5769 104.498 80.3037 104.448 79.5074 103.468C79.1445 103.021 78.9164 102.417 78.5346 101.996C77.8587 101.249 76.8056 101.185 76.1905 100.358C76.0265 100.137 75.9021 99.8717 75.7284 99.6619C75.5553 99.4527 75.3094 99.3013 75.0749 99.385C74.7172 99.5117 74.5928 100.067 74.5298 100.529C74.508 100.687 74.4896 100.848 74.4741 101.009L73.9513 101.047L73.9381 100.971C73.7782 100.04 72.7899 99.3495 71.7311 99.428L66.0988 99.8345C65.0394 99.913 64.3107 100.731 64.4701 101.662L64.4655 105.025C64.6358 106.015 66.2879 106.664 67.3961 106.491Z" fill="#FDCD9D"/>
<path d="M67.2109 98.8083L72.4121 98.6123C73.3116 98.4764 73.8963 97.7845 73.7599 97.0174L73.6297 95.8079L74.082 95.797C74.0843 96.2355 73.9817 96.6895 73.9634 97.1344C73.9513 97.4233 73.9783 97.7088 74.0419 97.9742C74.1239 98.3147 74.3239 98.6587 74.614 98.6111C74.9213 98.5601 75.1191 98.1147 75.4023 97.9192C75.7674 97.667 76.1744 97.8791 76.5069 98.0992C77.775 98.939 79.0167 99.8798 80.4332 100.321C80.6711 100.395 81.0054 100.396 81.1177 100.09C81.2031 99.8568 81.0845 99.6184 80.9555 99.4555C80.2211 98.5286 79.0224 98.2626 78.4446 97.1631C78.1815 96.662 78.0737 96.0286 77.7882 95.5499C77.282 94.7003 76.2954 94.4578 75.8609 93.54C75.7451 93.2952 75.6751 93.0126 75.549 92.7776C75.4223 92.5425 75.2165 92.3516 74.9786 92.3935C74.6169 92.4571 74.3979 92.9817 74.2552 93.4259C74.2059 93.5784 74.1588 93.7338 74.1153 93.8903L73.276 94.0015L73.264 93.9338C73.1184 93.1147 72.2075 92.5081 71.2295 92.5792L66.0271 92.949C65.0491 93.0206 64.3738 93.743 64.5194 94.5622L64.5079 97.5242C64.6627 98.3961 66.187 98.9637 67.2109 98.8083Z" fill="#FDCD9D"/>
<path d="M67.1278 92.0684L71.8893 91.8866C72.7131 91.7651 73.2491 91.1529 73.1259 90.4753L73.0084 89.4067L73.3552 89.3981C73.3323 89.7736 73.2526 90.1577 73.2365 90.5349C73.2245 90.8238 73.2514 91.1087 73.3151 91.3747C73.397 91.7152 73.5971 92.0592 73.8872 92.0116C74.1944 91.9606 74.3928 91.5152 74.676 91.3197C75.0412 91.0669 75.4482 91.2795 75.7807 91.4997C77.0487 92.3395 78.2904 93.2802 79.707 93.7217C79.9449 93.7956 80.2791 93.7968 80.3914 93.4906C80.4774 93.2573 80.3582 93.0188 80.2292 92.856C79.4949 91.9291 78.2962 91.6631 77.7183 90.5635C77.4552 90.0625 77.3474 89.429 77.0619 88.9504C76.5557 88.1008 75.5691 87.8583 75.1352 86.9405C75.0194 86.6957 74.9489 86.4131 74.8227 86.1775C74.696 85.9424 74.4902 85.7515 74.2529 85.7934C73.8912 85.857 73.6722 86.3816 73.5295 86.8258C73.4223 87.1589 73.3185 87.504 73.2726 87.8468L72.6885 87.8107L72.6776 87.7511C72.5457 87.0271 71.7122 86.4928 70.8168 86.5576L66.0535 86.8929C65.1575 86.9571 64.5384 87.5969 64.6708 88.3203L64.6553 90.9379C64.7963 91.7078 66.1905 92.2065 67.1278 92.0684Z" fill="#FDCD9D"/>
<path d="M75.9229 153.463C76.2164 154.219 76.9261 154.742 77.7413 155.032H80.6156L88.1885 152.988C89.4651 152.433 90.0177 150.915 89.4628 149.485L88.7136 147.203L90.6959 146.662C90.8375 146.917 90.9688 147.166 91.076 147.393C91.2617 147.789 91.3907 148.224 91.6831 148.549C92.1451 149.063 92.8485 149.87 93.5697 148.78C93.9452 148.117 94.3906 147.316 95.2018 147.519C96.013 147.723 96.6017 148.399 97.2695 148.903C98.1621 149.576 99.8618 151.137 100.384 150.001C100.608 149.195 100.187 148.327 99.5729 147.76C98.9584 147.193 98.1742 146.855 97.4295 146.476C95.8885 145.691 94.5385 143.886 93.2791 142.702C92.6101 142.072 91.8946 142.178 91.0743 141.764C90.2539 141.35 89.1791 141.279 88.4751 141.869C88.2389 142.511 88.3398 142.976 88.6069 143.454L87.3589 143.844L87.3102 143.719C86.7175 142.192 85.0831 141.323 83.6597 141.777L76.0857 144.178C74.6623 144.633 73.9887 146.24 74.5815 147.767L75.9229 153.463Z" fill="#FDCD9D"/>
<path d="M84.0213 130.224C83.4773 129.967 82.6392 130.203 82.6094 130.804C82.6019 130.959 82.6501 131.11 82.6982 131.258C82.7888 131.539 82.88 131.821 82.9705 132.102L82.0636 132.403L82.0183 132.285C81.4634 130.855 79.9322 130.041 78.5988 130.467L71.5047 132.716C70.1718 133.142 69.5407 134.647 70.0956 136.077L71.3527 141.411C71.9438 142.934 74.3137 143.492 75.674 142.901L82.8421 140.966C84.038 140.447 84.5556 139.024 84.0357 137.685L83.334 135.548L84.0213 135.35C84.0815 135.536 84.1411 135.722 84.2013 135.908C84.41 136.552 84.6296 137.217 85.0761 137.727C85.5233 138.236 85.8713 139.063 86.503 138.816C86.9691 138.572 87.2127 137.276 87.3721 136.761C88.052 135.817 89.5396 136.205 90.5313 136.812C91.5231 137.419 92.6948 138.182 93.7485 137.691C94.942 137.287 91.5156 133.729 89.433 132.97C88.0588 132.468 86.4715 132.373 85.3714 131.409C84.9179 131.014 84.5659 130.482 84.0213 130.224Z" fill="#FDCD9D"/>
<path d="M85.3886 123.82C85.02 123.666 84.6313 123.56 84.2765 123.377C83.4349 122.941 82.8743 122.124 82.2225 121.437C81.5707 120.749 80.6695 120.139 79.7408 120.325C79.4714 120.378 79.2031 120.509 79.0535 120.74C78.7737 121.172 79.0007 121.74 79.2306 122.2C79.3395 122.419 79.449 122.638 79.5585 122.857L78.4326 123.139L78.3954 123.046C77.9419 121.909 76.5672 121.234 75.3255 121.541L68.7169 123.157C67.4747 123.463 66.8355 124.634 67.2884 125.771L68.2314 129.997C68.7141 131.208 70.869 131.699 72.1428 131.264L78.8058 129.896C79.9254 129.513 80.4574 128.405 80.0332 127.34L79.4737 125.643L80.8065 125.355C81.0788 125.9 81.3511 126.445 81.6234 126.99C81.7306 127.204 81.8441 127.426 82.0356 127.569C82.5223 127.932 83.22 127.617 83.6837 127.223C84.1469 126.831 84.6159 126.332 85.223 126.328C85.9877 126.322 86.4922 127.078 87.0597 127.591C87.6272 128.103 88.7852 128.229 88.9434 127.481C89.026 127.091 88.748 126.725 88.486 126.422C87.5945 125.393 86.6441 124.346 85.3886 123.82Z" fill="#FDCD9D"/>
<path d="M81.5609 115.682C80.6202 115.017 79.2827 115.075 78.4097 114.324C78.1769 114.124 77.9889 113.874 77.7458 113.686C77.5027 113.498 77.1743 113.375 76.8876 113.485C76.4508 113.652 76.3568 114.218 76.331 114.685C76.3201 114.876 76.3149 115.07 76.3184 115.263L75.7251 115.369L75.7015 115.292C75.4189 114.351 74.2695 113.752 73.1339 113.955L67.0945 115.024C65.9589 115.227 65.2675 116.155 65.5502 117.097L65.9417 120.565C66.2427 121.568 68.1052 122.046 69.2821 121.739L75.3438 120.874C76.3786 120.604 76.9679 119.723 76.703 118.842L76.3849 117.442L77.0487 117.356C77.1221 117.676 77.1634 118.007 77.2597 118.322C77.3457 118.601 77.4792 118.866 77.6535 119.102C77.8771 119.403 78.2514 119.675 78.6028 119.543C78.9749 119.405 79.0706 118.92 79.3613 118.65C79.7368 118.302 80.3272 118.385 80.8271 118.498C82.7315 118.93 84.6376 119.466 86.5907 119.473C86.9186 119.474 87.3434 119.378 87.3784 119.051C87.4053 118.803 87.1709 118.609 86.9502 118.492C85.6924 117.82 84.0781 117.917 82.9585 117.034C82.45 116.632 82.0912 116.057 81.5609 115.682Z" fill="#FDCD9D"/>
<path d="M79.7333 108.585C78.9972 107.897 77.943 107.921 77.2602 107.149C77.0785 106.943 76.9317 106.688 76.742 106.494C76.5522 106.3 76.2942 106.169 76.0672 106.272C75.7216 106.429 75.6436 106.992 75.6201 107.458C75.6098 107.665 75.6029 107.876 75.6063 108.085C75.6058 108.082 75.6029 108.08 75.6023 108.077L74.9884 108.166L74.9683 108.091C74.7195 107.177 73.5924 106.57 72.4505 106.736L66.3779 107.608C65.2365 107.773 64.5119 108.65 64.7607 109.564L65.0284 112.917C65.2933 113.891 67.1369 114.4 68.3236 114.136L74.4111 113.46C75.4544 113.228 76.0747 112.394 75.8419 111.538L75.5742 110.181L76.1624 110.123C76.2203 110.451 76.2501 110.791 76.3252 111.114C76.3906 111.397 76.4943 111.665 76.6296 111.904C76.8033 112.212 77.0962 112.491 77.3743 112.37C77.6689 112.24 77.7481 111.759 77.9791 111.496C78.2772 111.156 78.7421 111.254 79.1354 111.38C80.6327 111.859 82.1307 112.443 83.6693 112.499C83.9279 112.508 84.2632 112.422 84.2936 112.096C84.3165 111.849 84.1331 111.649 83.9605 111.526C82.9745 110.823 81.7019 110.88 80.8265 109.97C80.4269 109.555 80.1483 108.973 79.7333 108.585Z" fill="#FDCD9D"/>
<path d="M67.3961 106.491L73.0278 106.282C74.0018 106.129 74.6329 105.346 74.4833 104.474L74.3389 103.101L74.8353 103.089C74.8823 103.464 74.8726 103.858 74.9276 104.233C74.9694 104.519 75.0503 104.795 75.1649 105.045C75.3123 105.366 75.5811 105.67 75.8683 105.571C76.1722 105.467 76.2914 104.993 76.5436 104.751C76.8692 104.438 77.3244 104.575 77.7051 104.732C79.1571 105.334 80.6012 106.041 82.1301 106.225C82.3869 106.256 82.728 106.198 82.7853 105.877C82.8289 105.631 82.6627 105.418 82.5004 105.28C81.5769 104.498 80.3037 104.448 79.5074 103.468C79.1445 103.021 78.9164 102.417 78.5346 101.996C77.8587 101.249 76.8056 101.185 76.1905 100.358C76.0265 100.137 75.9021 99.8717 75.7284 99.6619C75.5553 99.4527 75.3094 99.3013 75.0749 99.385C74.7172 99.5117 74.5928 100.067 74.5298 100.529C74.508 100.687 74.4896 100.848 74.4741 101.009L73.9513 101.047L73.9381 100.971C73.7782 100.04 72.7899 99.3495 71.7311 99.428L66.0988 99.8345C65.0394 99.913 64.3107 100.731 64.4701 101.662L64.4655 105.025C64.6358 106.015 66.2879 106.664 67.3961 106.491Z" fill="#FFF3E8"/>
<path d="M67.2109 98.8083L72.4121 98.6123C73.3116 98.4764 73.8963 97.7845 73.7599 97.0174L73.6297 95.8079L74.082 95.797C74.0843 96.2355 73.9817 96.6895 73.9634 97.1344C73.9513 97.4233 73.9783 97.7088 74.0419 97.9742C74.1239 98.3147 74.3239 98.6587 74.614 98.6111C74.9213 98.5601 75.1191 98.1147 75.4023 97.9192C75.7674 97.667 76.1744 97.8791 76.5069 98.0992C77.775 98.939 79.0167 99.8798 80.4332 100.321C80.6711 100.395 81.0054 100.396 81.1177 100.09C81.2031 99.8568 81.0845 99.6184 80.9555 99.4555C80.2211 98.5286 79.0224 98.2626 78.4446 97.1631C78.1815 96.662 78.0737 96.0286 77.7882 95.5499C77.282 94.7003 76.2954 94.4578 75.8609 93.54C75.7451 93.2952 75.6751 93.0126 75.549 92.7776C75.4223 92.5425 75.2165 92.3516 74.9786 92.3935C74.6169 92.4571 74.3979 92.9817 74.2552 93.4259C74.2059 93.5784 74.1588 93.7338 74.1153 93.8903L73.276 94.0015L73.264 93.9338C73.1184 93.1147 72.2075 92.5081 71.2295 92.5792L66.0271 92.949C65.0491 93.0206 64.3738 93.743 64.5194 94.5622L64.5079 97.5242C64.6627 98.3961 66.187 98.9637 67.2109 98.8083Z" fill="#FFF3E8"/>
<path d="M67.1278 92.0684L71.8893 91.8866C72.7131 91.7651 73.2491 91.1529 73.1259 90.4753L73.0084 89.4067L73.3552 89.3981C73.3323 89.7736 73.2526 90.1577 73.2365 90.5349C73.2245 90.8238 73.2514 91.1087 73.3151 91.3747C73.397 91.7152 73.5971 92.0592 73.8872 92.0116C74.1944 91.9606 74.3928 91.5152 74.676 91.3197C75.0412 91.0669 75.4482 91.2795 75.7807 91.4997C77.0487 92.3395 78.2904 93.2802 79.707 93.7217C79.9449 93.7956 80.2791 93.7968 80.3914 93.4906C80.4774 93.2573 80.3582 93.0188 80.2292 92.856C79.4949 91.9291 78.2962 91.6631 77.7183 90.5635C77.4552 90.0625 77.3474 89.429 77.0619 88.9504C76.5557 88.1008 75.5691 87.8583 75.1352 86.9405C75.0194 86.6957 74.9489 86.4131 74.8227 86.1775C74.696 85.9424 74.4902 85.7515 74.2529 85.7934C73.8912 85.857 73.6722 86.3816 73.5295 86.8258C73.4223 87.1589 73.3185 87.504 73.2726 87.8468L72.6885 87.8107L72.6776 87.7511C72.5457 87.0271 71.7122 86.4928 70.8168 86.5576L66.0535 86.8929C65.1575 86.9571 64.5384 87.5969 64.6708 88.3203L64.6553 90.9379C64.7963 91.7078 66.1905 92.2065 67.1278 92.0684Z" fill="#FFF3E8"/>
<path d="M75.9229 153.463C76.2164 154.219 76.9261 154.742 77.7413 155.032H80.6156L88.1885 152.988C89.4651 152.433 90.0177 150.915 89.4628 149.485L88.7136 147.203L90.6959 146.662C90.8375 146.917 90.9688 147.166 91.076 147.393C91.2617 147.789 91.3907 148.224 91.6831 148.549C92.1451 149.063 92.8485 149.87 93.5697 148.78C93.9452 148.117 94.3906 147.316 95.2018 147.519C96.013 147.723 96.6017 148.399 97.2695 148.903C98.1621 149.576 99.8618 151.137 100.384 150.001C100.608 149.195 100.187 148.327 99.5729 147.76C98.9584 147.193 98.1742 146.855 97.4295 146.476C95.8885 145.691 94.5385 143.886 93.2791 142.702C92.6101 142.072 91.8946 142.178 91.0743 141.764C90.2539 141.35 89.1791 141.279 88.4751 141.869C88.2389 142.511 88.3398 142.976 88.6069 143.454L87.3589 143.844L87.3102 143.719C86.7175 142.192 85.0831 141.323 83.6597 141.777L76.0857 144.178C74.6623 144.633 73.9887 146.24 74.5815 147.767L75.9229 153.463Z" fill="#FFF3E8"/>
<path d="M84.0213 130.224C83.4773 129.967 82.6392 130.203 82.6094 130.804C82.6019 130.959 82.6501 131.11 82.6982 131.258C82.7888 131.539 82.88 131.821 82.9705 132.102L82.0636 132.403L82.0183 132.285C81.4634 130.855 79.9322 130.041 78.5988 130.467L71.5047 132.716C70.1718 133.142 69.5407 134.647 70.0956 136.077L71.3527 141.411C71.9438 142.934 74.3137 143.492 75.674 142.901L82.8421 140.966C84.038 140.447 84.5556 139.024 84.0357 137.685L83.334 135.548L84.0213 135.35C84.0815 135.536 84.1411 135.722 84.2013 135.908C84.41 136.552 84.6296 137.217 85.0761 137.727C85.5233 138.236 85.8713 139.063 86.503 138.816C86.9691 138.572 87.2127 137.276 87.3721 136.761C88.052 135.817 89.5396 136.205 90.5313 136.812C91.5231 137.419 92.6948 138.182 93.7485 137.691C94.942 137.287 91.5156 133.729 89.433 132.97C88.0588 132.468 86.4715 132.373 85.3714 131.409C84.9179 131.014 84.5659 130.482 84.0213 130.224Z" fill="#FFF3E8"/>
<path d="M85.3886 123.82C85.02 123.666 84.6313 123.56 84.2765 123.377C83.4349 122.941 82.8743 122.124 82.2225 121.437C81.5707 120.749 80.6695 120.139 79.7408 120.325C79.4714 120.378 79.2031 120.509 79.0535 120.74C78.7737 121.172 79.0007 121.74 79.2306 122.2C79.3395 122.419 79.449 122.638 79.5585 122.857L78.4326 123.139L78.3954 123.046C77.9419 121.909 76.5672 121.234 75.3255 121.541L68.7169 123.157C67.4747 123.463 66.8355 124.634 67.2884 125.771L68.2314 129.997C68.7141 131.208 70.869 131.699 72.1428 131.264L78.8058 129.896C79.9254 129.513 80.4574 128.405 80.0332 127.34L79.4737 125.643L80.8065 125.355C81.0788 125.9 81.3511 126.445 81.6234 126.99C81.7306 127.204 81.8441 127.426 82.0356 127.569C82.5223 127.932 83.22 127.617 83.6837 127.223C84.1469 126.831 84.6159 126.332 85.223 126.328C85.9877 126.322 86.4922 127.078 87.0597 127.591C87.6272 128.103 88.7852 128.229 88.9434 127.481C89.026 127.091 88.748 126.725 88.486 126.422C87.5945 125.393 86.6441 124.346 85.3886 123.82Z" fill="#FFF3E8"/>
<path d="M81.5609 115.682C80.6202 115.017 79.2827 115.075 78.4097 114.324C78.1769 114.124 77.9889 113.874 77.7458 113.686C77.5027 113.498 77.1743 113.375 76.8876 113.485C76.4508 113.652 76.3568 114.218 76.331 114.685C76.3201 114.876 76.3149 115.07 76.3184 115.263L75.7251 115.369L75.7015 115.292C75.4189 114.351 74.2695 113.752 73.1339 113.955L67.0945 115.024C65.9589 115.227 65.2675 116.155 65.5502 117.097L65.9417 120.565C66.2427 121.568 68.1052 122.046 69.2821 121.739L75.3438 120.874C76.3786 120.604 76.9679 119.723 76.703 118.842L76.3849 117.442L77.0487 117.356C77.1221 117.676 77.1634 118.007 77.2597 118.322C77.3457 118.601 77.4792 118.866 77.6535 119.102C77.8771 119.403 78.2514 119.675 78.6028 119.543C78.9749 119.405 79.0706 118.92 79.3613 118.65C79.7368 118.302 80.3272 118.385 80.8271 118.498C82.7315 118.93 84.6376 119.466 86.5907 119.473C86.9186 119.474 87.3434 119.378 87.3784 119.051C87.4053 118.803 87.1709 118.609 86.9502 118.492C85.6924 117.82 84.0781 117.917 82.9585 117.034C82.45 116.632 82.0912 116.057 81.5609 115.682Z" fill="#FFF3E8"/>
<path d="M79.7333 108.585C78.9972 107.897 77.943 107.921 77.2602 107.149C77.0785 106.943 76.9317 106.688 76.742 106.494C76.5522 106.3 76.2942 106.169 76.0672 106.272C75.7216 106.429 75.6436 106.992 75.6201 107.458C75.6098 107.665 75.6029 107.876 75.6063 108.085C75.6058 108.082 75.6029 108.08 75.6023 108.077L74.9884 108.166L74.9683 108.091C74.7195 107.177 73.5924 106.57 72.4505 106.736L66.3779 107.608C65.2365 107.773 64.5119 108.65 64.7607 109.564L65.0284 112.917C65.2933 113.891 67.1369 114.4 68.3236 114.136L74.4111 113.46C75.4544 113.228 76.0747 112.394 75.8419 111.538L75.5742 110.181L76.1624 110.123C76.2203 110.451 76.2501 110.791 76.3252 111.114C76.3906 111.397 76.4943 111.665 76.6296 111.904C76.8033 112.212 77.0962 112.491 77.3743 112.37C77.6689 112.24 77.7481 111.759 77.9791 111.496C78.2772 111.156 78.7421 111.254 79.1354 111.38C80.6327 111.859 82.1307 112.443 83.6693 112.499C83.9279 112.508 84.2632 112.422 84.2936 112.096C84.3165 111.849 84.1331 111.649 83.9605 111.526C82.9745 110.823 81.7019 110.88 80.8265 109.97C80.4269 109.555 80.1483 108.973 79.7333 108.585Z" fill="#FFF3E8"/>
<path opacity="0.1" d="M63.8028 144.453C43.238 134.961 48.2122 109.855 53.488 103.718C38.1755 113.825 17.3156 120.943 10.4192 110.055L10.5184 111.088C10.0844 119.332 16.7211 121.744 23.246 121.772L36.0734 121.28L35.7512 129.364L38.6599 135.71L38.5401 155.361C38.5401 155.361 38.1474 155.981 37.4813 157.083H119.029C117.68 154.608 116.262 152.074 114.781 149.49C97.9292 155.56 78.4571 151.216 63.8028 144.453Z" fill="black"/>
<path opacity="0.1" d="M82.7921 86.4498C85.956 89.6137 87.8827 93.5411 89.458 98.8799C93.8091 113.508 91.0901 125.855 107.599 137.385C104.647 132.559 101.494 127.56 98.0868 122.342L93.3924 94.44C101.678 82.8302 106.275 65.8381 107.109 49.8916C103.746 69.049 100.444 82.0999 82.7921 86.4498Z" fill="black"/>
<path d="M101.015 31.3086L99.3097 35.2607L99.1813 45.0085L99.0437 52.4959L96.0908 54.3435L95.7727 60.2109L91.2765 63.7433L96.116 72.0184L90.1868 64.5998L84.4266 65.2418L81.9174 62.8513L77.38 66.8773L75.0566 70.7549L73.7094 76.5856L69.027 84.672L70.1122 85.0601C79.2924 85.1438 88.3695 83.1781 93.2577 76.8923C95.8174 74.2169 98.2698 71.7168 100.352 67.5974C103.352 60.2045 105.338 52.5824 103.701 44.1405C103.174 39.6742 102.33 35.3702 101.015 31.3086Z" fill="#FFF3E8"/>
<path d="M13.4994 81.6855L13.5819 81.6116C13.5642 81.4987 13.5367 81.5033 13.4994 81.6855Z" fill="#FFF3E8"/>
<path d="M51.6215 17.1158L54.2241 25.7554L51.6868 34.0569L55.2628 46.0507L58.398 46.3087L70.2566 38.7909L75.4314 41.616L80.5816 50.7618L79.7636 57.5957L84.4724 62.2346L89.5727 61.6665L94.3452 57.6112L94.6897 51.984L97.1691 50.2499L97.3708 43.424L97.5503 32.9557L100.186 28.5323C98.3213 23.1809 95.5834 18.2772 91.5545 14.0351C82.7113 8.01119 73.3218 3.84413 62.8918 3.21984C61.0413 3.16596 59.1702 3.18946 57.2945 3.28348L54.3806 10.2475L51.6215 17.1158Z" fill="#FFF3E8"/>
<path d="M73.3092 69.7451L76.2919 65.4576L81.4576 62.0645L78.2978 59.0543L78.7025 51.5932L74.3319 43.4282L69.8817 41.2051L62.5038 45.9821C62.5038 45.9821 58.652 49.1305 57.3633 48.6564C56.0746 48.1823 50.3701 48.0143 50.3701 48.0143L46.6329 47.7512L39.5795 53.2213L46.4696 46.2865L54.9264 46.8271L53.2243 44.792L49.8438 34.4176L52.6408 26.3174L50.1637 17.3234L52.709 10.2184L56.3291 3.35986C38.5889 4.40722 20.597 11.7697 15.4233 22.7735L11.227 40.5728L8.76709 46.7795L10.7013 50.8279L12.127 55.304C11.11 59.3604 10.0139 63.7338 8.87543 68.2729C12.9273 71.3669 14.2246 72.0588 15.4175 80.3981L12.5248 83.003C12.6154 83.5694 12.4624 87.3082 11.9843 89.6529C11.3147 92.6229 11.153 95.4973 11.3921 98.296L12.7003 98.183C12.788 96.8863 13.0689 92.4653 13.0689 92.4653L14.0314 98.0678L15.7386 97.9199C15.8268 96.6782 15.8893 92.5192 15.8893 92.5192L16.8002 97.8282L18.4897 97.682C18.5785 96.5108 18.547 92.1936 18.547 92.1936L19.5691 97.5891L21.2402 97.4447C21.3296 96.3538 21.368 92.0852 21.368 92.0852L22.338 97.3501L23.9913 97.2073C24.0807 96.2059 23.9173 91.8146 23.9173 91.8146L25.1069 97.111L26.8089 96.9643C26.8966 95.6595 26.8467 91.923 26.8467 91.923L27.8499 96.8743L29.7337 96.7115C29.822 95.4623 29.7755 91.5979 29.7755 91.5979L30.7931 96.6203L32.6579 96.4592C32.7496 94.9733 32.8855 89.9171 32.8694 91.7046L33.7362 96.3658L35.5821 96.2064C35.671 95.1161 35.7994 91.3778 35.7994 91.3778L36.6283 95.8349L40.8407 95.7742L36.8106 96.6908C36.8221 97.4739 37.2022 101.325 37.2022 101.325L35.5254 96.9127L33.8944 97.0709C33.8744 97.5995 34.2779 102.445 34.2779 102.445L32.7204 96.9803L30.9599 97.2578C30.9874 98.1699 31.4036 102.824 31.4036 102.824L29.8323 97.4355L28.0357 97.7187C28.0895 98.8331 28.6915 103.095 28.6915 103.095L26.9442 97.8913L25.2014 98.1658C25.2639 99.3439 25.8171 103.692 25.8171 103.692L24.1243 98.3361L22.389 98.6096C22.44 99.7028 22.8883 104.234 22.8883 104.234L21.2929 98.7821L19.576 99.0533C19.5943 99.8931 20.3929 104.886 20.3929 104.886L18.4392 99.2327L16.7418 99.5004C16.7899 100.573 17.4096 105.103 17.4096 105.103L15.6411 99.6741L13.9098 99.947C13.9775 101.165 14.4264 105.266 14.4264 105.266L12.843 100.116L11.6351 100.306C12.1086 103.268 13.0379 106.143 14.3977 108.939L14.9417 113.822C14.9417 113.822 18.4048 117.33 19.3811 117.221C20.3579 117.112 49.1513 109.144 49.1513 109.144C49.1513 109.144 53.8159 104.422 53.4903 103.717C53.1647 103.012 57.9595 80.601 57.9595 80.601L68.1562 84.251L71.9844 75.5775L73.3092 69.7451ZM36.9333 43.888L40.769 32.8314L37.2056 46.3295L36.6232 48.8662L39.6907 54.2102L40.2903 62.3626L44.6598 67.7467L39.0286 62.6888L38.1853 55.12L35.6469 48.9757L36.9333 43.888ZM19.6184 67.076L16.2516 59.0462L15.5987 53.1863L16.8461 51.0698L20.726 52.6148C22.4779 53.2672 23.9282 54.5175 25.0954 56.3301C26.6489 59.4332 27.7055 62.8504 28.2185 66.6116C27.8597 69.5055 26.446 71.1421 23.7981 71.3067L19.6184 67.076ZM53.6159 79.3553L48.488 77.702L44.5273 77.6493L42.0325 81.8823L44.4866 88.9013L44.235 97.2102L36.7499 105.46L41.4403 96.5326L42.0623 91.0253L39.646 84.8672L35.2244 87.3374L29.4998 86.9866L28.007 84.6809L27.5719 80.7741L24.2601 75.4577L29.1719 79.607L31.4787 82.5633L39.9429 80.8785L42.9222 74.8609L48.8383 69.752L56.4088 73.3578L53.6159 79.3553Z" fill="#FFF3E8"/>
</svg>
