<svg width="114" height="163" viewBox="0 0 114 163" fill="none" xmlns="http://www.w3.org/2000/svg">
<path d="M2.43439 79.2166L3.67837 81.9757C1.71551 98.9065 0.293813 101.524 4.83923 113.713C3.25071 126.491 4.56521 134.214 6.06774 140.973C3.81022 149.702 4.62426 154.76 6.06774 162.349H94.0633C92.6938 159.702 91.2606 157.147 89.7788 154.707C93.6225 87.0061 126.101 74.3702 84.4674 0H23.7639L23.7535 1.70088C23.7535 1.70088 -1.41394 41.2361 0.0645086 73.598C0.148779 75.4468 1.67309 77.5289 2.43439 79.2166Z" fill="#F7C18B"/>
<path d="M95.0278 81.6919C105.226 71.4936 105.226 54.959 95.0278 44.7608C84.8295 34.5625 68.2949 34.5625 58.0967 44.7608C47.8984 54.959 47.8984 71.4936 58.0967 81.6919C68.2949 91.8901 84.8295 91.8901 95.0278 81.6919Z" fill="#FF9D6C"/>
<path d="M51.7345 159.487H60.8396L65.6682 158.618C66.9277 158.391 67.8071 157.241 67.6959 155.966L67.5193 153.942L68.7495 153.835C68.843 154.42 68.9657 154.999 69.1222 155.57C69.2735 156.125 69.4787 156.705 69.9345 157.056C70.0422 157.139 70.1626 157.206 70.2899 157.255C71.7827 157.828 73.0003 155.771 74.5762 155.503C75.5175 155.343 76.4244 155.848 77.3313 156.146C78.2382 156.443 79.4398 156.43 79.9138 155.602C80.0853 155.301 80.1254 154.944 80.1208 154.597C80.099 152.836 78.9324 151.141 77.294 150.492C75.7118 149.866 73.7513 150.12 72.4683 149.002C72.2046 148.773 71.9822 148.492 71.6846 148.309C70.8494 147.796 69.6822 148.262 69.1353 149.076C68.7799 149.604 68.628 150.228 68.5747 150.869L67.2619 150.983L67.2522 150.871C67.1335 149.509 65.9331 148.501 64.571 148.621L53.1103 149.62C51.7482 149.738 50.7404 150.939 50.8591 152.301L51.3945 158.442C51.4278 158.827 51.551 159.178 51.7345 159.487Z" fill="#FFF3E8"/>
<path d="M63.624 148.089C64.9035 148.083 65.9675 147.101 66.0775 145.826L66.2518 143.802L67.4826 143.908C67.4734 144.499 67.4946 145.092 67.5502 145.681C67.6041 146.254 67.7056 146.861 68.0949 147.284C68.1871 147.385 68.2938 147.472 68.4107 147.542C69.7825 148.364 71.3361 146.547 72.9349 146.553C73.8894 146.557 74.696 147.211 75.5381 147.661C76.3802 148.11 77.5663 148.304 78.1757 147.57C78.3964 147.303 78.4973 146.958 78.5523 146.616C78.8344 144.877 77.9762 143.007 76.4743 142.086C75.0233 141.196 73.0484 141.11 71.977 139.787C71.7569 139.516 71.586 139.201 71.324 138.97C70.5891 138.32 69.3595 138.578 68.6802 139.285C68.2393 139.745 67.9825 140.333 67.8197 140.955L66.5063 140.842L66.5155 140.73C66.633 139.368 65.6241 138.169 64.262 138.051L52.8002 137.064C51.4381 136.946 50.2388 137.955 50.1213 139.317L49.5916 145.459C49.4666 146.909 50.6143 148.154 52.0704 148.147L63.624 148.089Z" fill="#FFF3E8"/>
<path d="M52.3272 135.7L63.8063 137C65.0778 137.144 66.2501 136.295 66.5092 135.042L66.9209 133.052L68.1299 133.302C68.0519 133.888 68.0032 134.479 67.9888 135.071C67.9751 135.646 68.0043 136.261 68.3414 136.726C68.4211 136.837 68.5168 136.936 68.6246 137.02C69.8904 137.997 71.6463 136.376 73.2337 136.57C74.1813 136.686 74.9047 137.431 75.6884 137.976C76.472 138.521 77.6272 138.853 78.3185 138.196C78.569 137.957 78.7095 137.625 78.8046 137.293C79.289 135.598 78.6573 133.641 77.2734 132.55C75.9372 131.495 73.9864 131.177 73.0783 129.738C72.8914 129.443 72.759 129.111 72.5262 128.85C71.8727 128.119 70.6213 128.23 69.864 128.853C69.3721 129.258 69.0477 129.812 68.8126 130.41L67.5216 130.144L67.5446 130.034C67.8215 128.695 66.9604 127.385 65.6213 127.108L54.3549 124.78C53.0163 124.503 51.7064 125.364 51.4295 126.702L50.1815 132.739C49.8869 134.165 50.8803 135.536 52.3272 135.7Z" fill="#FFF3E8"/>
<path d="M75.1661 119.219C75.0056 118.908 74.9018 118.566 74.6932 118.286C74.1056 117.501 72.849 117.504 72.0401 118.059C71.515 118.42 71.1441 118.944 70.8586 119.52L69.5957 119.143L69.6278 119.036C70.0188 117.726 69.2741 116.346 67.9642 115.955L56.9409 112.663C55.631 112.272 54.2517 113.017 53.8608 114.327L52.0962 120.234C51.6795 121.629 52.5514 123.08 53.9783 123.368L65.302 125.654C66.5563 125.907 67.7974 125.162 68.1637 123.936L68.745 121.989L69.9282 122.342C69.7998 122.92 69.7 123.504 69.6353 124.093C69.5722 124.664 69.5481 125.28 69.8433 125.773C69.9133 125.89 69.9998 125.997 70.1002 126.09C71.2771 127.172 73.166 125.708 74.7304 126.039C75.6643 126.236 76.3212 127.041 77.055 127.652C77.7888 128.262 78.9107 128.693 79.6565 128.097C79.9271 127.881 80.0956 127.563 80.2189 127.24C80.8477 125.594 80.3868 123.589 79.1027 122.382C77.8627 121.216 75.9469 120.731 75.1661 119.219Z" fill="#FFF3E8"/>
<path d="M78.9232 109.372C78.7942 109.047 78.7243 108.697 78.5432 108.397C78.0347 107.558 76.7844 107.439 75.925 107.912C75.3673 108.22 74.9471 108.705 74.6065 109.251L73.3866 108.752L73.4291 108.648C73.9461 107.383 73.3396 105.938 72.0739 105.42L61.4243 101.068C60.1591 100.551 58.7139 101.157 58.1963 102.423L55.8637 108.129C55.3128 109.477 56.0385 111.007 57.431 111.433L68.4778 114.813C69.7017 115.187 71.0093 114.567 71.4937 113.382L72.2625 111.501L73.4056 111.968C73.221 112.531 73.065 113.103 72.9429 113.682C72.8243 114.245 72.7406 114.855 72.9865 115.375C73.0444 115.498 73.1201 115.613 73.2112 115.715C74.2763 116.907 76.3 115.634 77.8243 116.116C78.7346 116.404 79.3096 117.269 79.9803 117.948C80.651 118.627 81.7259 119.165 82.5262 118.645C82.8163 118.456 83.0152 118.157 83.1694 117.847C83.9559 116.27 83.6928 114.23 82.5325 112.904C81.4123 111.623 79.5527 110.953 78.9232 109.372Z" fill="#FFF3E8"/>
<path d="M83.6813 99.642C82.6426 99.0475 81.3418 98.7208 80.8167 97.4992C80.5163 96.8009 80.5243 95.8917 80.0279 95.3741C79.5658 94.8919 78.8246 94.9848 78.3391 95.4125C78.0003 95.7106 77.7658 96.1348 77.5812 96.5922L76.7104 96.2357L76.7368 96.1141C77.0572 94.6346 76.2398 93.132 74.9104 92.7577L63.7237 89.6088C62.3943 89.2344 61.0563 90.1304 60.7358 91.61L59.5962 96.8668C59.2545 98.4427 60.9021 100.19 62.3433 100.443L72.7709 103.7C74.0379 103.923 75.2371 103.033 75.5375 101.648L76.0139 99.45L76.8417 99.6988C76.6743 101.142 76.7225 102.626 76.993 104.057C77.0567 104.393 77.157 104.764 77.4132 104.926C77.8696 105.214 78.335 104.643 78.7507 104.294C79.5217 103.647 80.5977 103.739 81.4783 104.185C82.3588 104.631 83.1052 105.379 83.8917 106.031C84.3302 106.394 84.802 106.737 85.3277 106.828C85.8528 106.919 86.4444 106.7 86.703 106.155C86.8796 105.784 86.8784 105.328 86.8366 104.9C86.6204 102.679 85.3822 100.616 83.6813 99.642Z" fill="#FFF3E8"/>
<path d="M84.652 85.3659C83.9985 84.8569 83.2188 84.4436 82.8537 83.6633C82.559 83.0333 82.5963 82.2818 82.3773 81.6174C82.1577 80.9524 81.4365 80.3545 80.8965 80.7351C80.6431 80.9134 80.5262 81.2459 80.4316 81.5583C80.2831 82.0473 80.1628 82.5461 80.047 83.0454L78.858 82.7587L78.8649 82.6349C78.9446 81.1232 77.8972 79.7709 76.5254 79.6138L65.509 78.2678C64.1371 78.1113 62.9596 79.2091 62.8794 80.7208L62.0648 86.1186C61.9794 87.7284 63.8849 89.1902 65.3479 89.2103L76.1625 90.7575C77.4483 90.7753 78.4905 89.705 78.5656 88.2896L78.6843 86.043L79.5436 86.2952C79.4645 87.2199 79.4209 88.1486 79.4525 89.0778C79.4674 89.5204 79.5069 89.995 79.7666 90.3379C80.4459 91.2321 81.8046 90.4623 82.8107 90.8349C83.5834 91.1209 83.9956 92.0198 84.3264 92.8344C84.6841 93.7138 85.0412 94.5932 85.3989 95.4726C85.6988 96.2104 86.1442 97.0628 86.8808 97.0984C87.4191 97.1242 87.8909 96.6552 88.0858 96.1089C88.2808 95.5626 88.2572 94.9538 88.2188 94.3668C87.9964 91.0023 87.1761 87.3317 84.652 85.3659Z" fill="#FFF3E8"/>
<path d="M85.6723 72.5488C84.9976 71.8632 84.1618 71.2785 83.8361 70.3343C83.6057 69.6659 83.6447 68.8484 83.1855 68.3416C82.6128 67.7093 81.5614 68.0109 81.0896 68.7274C80.7675 69.2164 80.6557 69.8184 80.6259 70.4329L79.9689 70.3819L79.966 70.2615C79.9339 68.798 78.7891 67.5723 77.4093 67.5242L67.0681 66.9595C65.6883 66.9108 64.5957 68.0584 64.6278 69.522L64.2156 74.788C64.25 76.3467 66.2587 77.6136 67.7188 77.5225L77.8736 78.2964C79.1577 78.2167 80.1168 77.1074 80.087 75.7373L80.0394 73.5624L80.8758 73.767C81.0025 74.6407 81.159 75.5103 81.3166 76.3782C81.3545 76.5869 81.3963 76.8047 81.5219 76.967C81.8395 77.3774 82.4276 77.186 82.9143 77.2106C84.0689 77.2691 84.7517 78.6323 85.2343 79.7955C85.8277 81.2275 86.5288 82.7151 87.7521 83.528C87.9407 83.6535 88.1568 83.7636 88.3718 83.7223C88.8872 83.6237 88.9543 82.8475 88.8952 82.2725C88.5346 78.7705 88.0313 74.9451 85.6723 72.5488Z" fill="#FFF3E8"/>
<path d="M87.4643 62.6188C87.4557 61.8581 87.4832 61.0728 87.2241 60.3659C86.7472 59.0635 85.4568 58.391 84.2603 57.9129C84.0912 57.2055 83.7983 56.4952 83.2652 56.0578C82.732 55.6204 81.9163 55.5471 81.4422 56.0504C80.9371 56.587 80.9996 57.4864 81.0994 58.258C81.12 58.4174 81.1406 58.5768 81.1613 58.7361L80.506 58.6977L80.4946 58.5842C80.3564 57.1981 79.1256 56.1134 77.7458 56.1627L67.799 56.3192C66.4186 56.3685 65.4114 57.5323 65.5495 58.919L65.5192 63.9442C65.6665 65.421 67.7618 66.4844 69.2121 66.2975L78.988 66.3525C80.263 66.1886 81.1401 65.0696 81.0111 63.7717L80.8059 61.7108L81.5373 61.6426C81.6549 62.5483 81.7718 63.4547 81.8887 64.3604C81.9191 64.5932 81.9541 64.8397 82.0928 65.0197C82.4735 65.515 83.1901 65.1263 83.7742 65.1808C84.7878 65.2754 85.1919 66.6328 85.5777 67.6745C85.9165 68.5877 86.4261 69.4344 87.1049 70.0793C87.4775 70.4336 87.9258 70.7351 88.4148 70.7495C88.9038 70.7638 89.422 70.4049 89.4857 69.8701C89.5458 69.3633 89.2116 68.9139 88.9388 68.4971C87.8387 66.8197 87.4878 64.6803 87.4643 62.6188Z" fill="#FFF3E8"/>
<path d="M88.2675 51.9687C87.8588 50.9339 87.9677 49.749 87.5475 48.7194C87.1668 47.7856 86.3431 47.0426 85.3748 46.7606C84.8549 46.6092 84.2873 46.5783 83.8281 46.2911C83.0926 45.8307 82.6111 44.737 81.7552 44.8803C81.3212 44.9531 81.0071 45.3658 80.9108 45.7952C80.8145 46.2251 80.8901 46.6729 80.967 47.1068C80.9773 47.167 80.9876 47.2272 80.9985 47.2874L80.0251 47.3201L80.0062 47.2129C79.778 45.9041 78.4784 44.9445 77.1037 45.07L67.1811 45.7843C65.8058 45.9093 64.876 47.0719 65.1041 48.3806L65.4011 53.1542C65.6442 54.5478 67.8059 55.4387 69.242 55.179L79.0075 54.6751C80.2704 54.4469 81.0736 53.3342 80.8598 52.1091L80.521 50.1641L81.4978 50.1325C81.5706 50.5493 81.644 50.9666 81.7174 51.3834C81.8349 52.0507 81.9834 52.7747 82.5016 53.2104C83.3036 53.8834 84.5178 53.528 85.5399 53.755C87.2694 54.1391 88.1024 56.0354 89.1171 57.4881C89.4353 57.9438 90.0246 58.4139 90.4803 58.0969C90.7807 57.8876 90.8054 57.456 90.7681 57.092C90.6683 56.1191 90.3393 55.1704 89.8153 54.3449C89.3068 53.5434 88.6155 52.8498 88.2675 51.9687Z" fill="#FFF3E8"/>
<path d="M83.9904 35.4071C83.4578 35.309 82.8897 35.336 82.4042 35.0969C81.6257 34.714 81.0363 33.6735 80.1994 33.9034C79.7746 34.0198 79.5046 34.4618 79.4518 34.8997C79.3997 35.3371 79.5201 35.7745 79.6399 36.1988C79.6416 36.2051 79.6433 36.2108 79.645 36.2171L78.7576 36.2389L78.7307 36.1305C78.4005 34.8126 77.0281 33.9143 75.6648 34.123L66.4536 35.4071C65.0904 35.6163 64.2529 36.854 64.5825 38.1714L65.2515 43.0097C65.6029 44.4131 67.8312 45.1904 69.2449 44.8413L77.7567 43.7773C78.9995 43.47 79.715 42.2908 79.406 41.0572L79.1314 39.1665L80.4585 39.1C80.5789 39.526 80.6993 39.9513 80.8191 40.3773C81.0031 41.0291 81.2244 41.7348 81.7844 42.1154C82.6501 42.7036 83.6103 40.645 84.5178 41.1672C86.0897 42.073 87.6427 44.3592 88.7989 45.7012C89.1612 46.1219 89.7953 46.5301 90.2166 46.1684C90.4946 45.9299 90.4752 45.4982 90.4012 45.1399C90.2034 44.182 89.7798 43.2717 89.175 42.5035C88.5885 41.7594 87.8307 41.1386 87.395 40.2976C86.8831 39.3099 86.8716 38.1203 86.3499 37.1378C85.877 36.2452 84.9827 35.5899 83.9904 35.4071Z" fill="#FFF3E8"/>
<path d="M78.5942 23.822C78.0639 23.3851 77.7211 22.7482 77.1702 22.3372C76.6193 21.9262 75.6797 21.8717 75.3696 22.4845C75.1276 22.9626 75.4103 23.5261 75.6722 23.9939C75.7915 24.2066 75.8958 24.4273 76.0093 24.6434L75.0371 24.894L74.9929 24.7902C74.4523 23.5284 72.9469 22.8164 71.629 23.2005L63.6606 25.3629C62.3433 25.7464 61.7132 27.0804 62.2538 28.3421L63.6996 33.0452C64.2752 34.3889 66.6095 34.8699 67.9544 34.3408L75.2652 32.4863C76.4473 32.0214 76.965 30.7607 76.4593 29.5798L76.2111 27.6353L77.2487 27.3687C77.6127 28.3135 77.9309 29.2771 78.1826 30.2574C78.2273 30.4334 78.2754 30.6186 78.4027 30.7487C78.7868 31.142 79.434 30.7281 79.7929 30.3125C80.3323 29.6876 80.9984 28.9555 81.8125 29.0908C82.3662 29.1825 82.7612 29.6549 83.1642 30.0459C83.9341 30.7934 84.9586 31.3478 86.0306 31.3025C86.2106 31.2945 86.4123 31.2578 86.5144 31.1093C86.6302 30.9413 86.5666 30.7126 86.4897 30.5234C86.1131 29.593 85.5232 28.7664 84.911 27.9712C83.9943 26.7811 82.9613 25.5996 81.5757 25.0201C80.5817 24.605 79.426 24.5076 78.5942 23.822Z" fill="#FFF3E8"/>
<path d="M74.5997 14.163C73.6997 13.8173 73.2754 12.6272 72.3273 12.4524C71.887 12.371 71.3407 12.4937 71.1784 12.9104C71.0644 13.2051 71.1819 13.533 71.2988 13.8265C71.453 14.2123 71.6072 14.5987 71.7614 14.9845C71.8142 15.1169 71.8675 15.2494 71.9208 15.3818L70.9274 15.6162L70.8861 15.5228C70.3793 14.3843 68.9616 13.7445 67.7188 14.0937L60.6705 16.0393C59.4282 16.3884 58.832 17.594 59.3382 18.7319L60.9096 22.8795C61.449 24.092 63.648 24.5213 64.9167 24.0409L71.5929 22.4484C72.7085 22.0259 73.1986 20.8868 72.7245 19.8211L72.0865 18.1197L73.0226 17.9225C73.0995 18.0801 73.1728 18.2389 73.2537 18.3943C73.7031 19.2622 74.4976 20.2213 75.4453 19.9834C76.2937 19.7701 75.7812 18.4682 76.5677 18.0864C77.2384 17.7614 78.9227 18.255 79.5567 18.6477C80.1907 19.0398 80.7405 19.5712 81.421 19.8762C81.6084 19.9604 81.8331 20.0241 82.0126 19.9238C82.3164 19.7546 82.239 19.3 82.1008 18.9807C81.0392 16.5335 79.066 15.2625 76.5757 14.3063C75.3512 13.8363 75.0056 14.3189 74.5997 14.163Z" fill="#FFF3E8"/>
<path d="M67.4425 3.44239C67.2052 3.4229 66.6434 3.25379 66.5608 3.47736C66.5196 3.58972 66.5775 4.20598 66.6044 4.32293C66.7489 4.95237 66.9552 5.53767 67.1983 6.10463L66.6193 6.29668L66.5832 6.20323C66.1401 5.06129 64.9178 4.41121 63.8527 4.75173L57.8128 6.64751C56.7482 6.98803 56.2443 8.1896 56.6875 9.33154L58.0667 13.4906C58.5391 14.7065 60.4309 15.1519 61.5172 14.6807L67.2401 13.1351C68.1952 12.7207 68.6085 11.585 68.1935 10.5159L67.6334 8.80987L68.4262 8.57254C68.487 8.69006 68.5483 8.80643 68.6085 8.92624C68.945 9.58779 69.5097 10.3313 70.2406 10.2023C70.9566 10.0756 71.2731 9.19166 71.9277 8.87465C72.9097 8.39884 73.9256 9.37109 74.9116 9.83888C75.6414 10.1857 77.6031 11.0364 77.2746 10.0326C76.8487 8.03481 75.0566 6.40674 73.0278 6.17285C72.6271 6.12642 72.2195 6.12928 71.8274 6.03469C70.1518 5.63111 69.1606 3.58227 67.4425 3.44239Z" fill="#FFF3E8"/>
<path opacity="0.1" d="M76.6153 128.624C57.7921 127.055 38.969 117.644 26.4202 101.958C10.5981 80.8618 6.13641 56.2194 8.71954 31.8459C3.66506 44.6475 -0.56907 59.7725 0.0626681 73.5974C0.146938 75.4467 1.67125 77.5288 2.43255 79.2165L3.67653 81.9756C1.71367 98.9064 0.291976 101.524 4.83739 113.713C3.24888 126.491 4.56337 134.214 6.0659 140.973C3.80838 149.702 4.62242 154.76 6.0659 162.348H94.0615C92.6919 159.702 91.2588 157.147 89.7769 154.707C90.3593 144.447 91.6016 135.458 93.1419 127.321C87.5388 128.234 81.8928 128.624 76.6153 128.624Z" fill="black"/>
</svg>
